<mxfile host="fb73ebca-ecf4-4fb2-982f-208276855a81" modified="2020-09-25T01:02:46.454Z" agent="5.0 (Windows NT 10.0; Win64; x64) AppleWebKit/537.36 (KHTML, like Gecko) Code/1.49.2 Chrome/83.0.4103.122 Electron/9.2.1 Safari/537.36" etag="F_li5swTj6HYjU7pCmaq" version="13.1.3">
    <diagram id="6hGFLwfOUW9BJ-s0fimq" name="Page-1">
        <mxGraphModel dx="992" dy="577" grid="1" gridSize="10" guides="1" tooltips="1" connect="1" arrows="1" fold="1" page="1" pageScale="1" pageWidth="827" pageHeight="1169" background="none" math="0" shadow="1">
            <root>
                <mxCell id="0"/>
                <mxCell id="1" parent="0"/>
                <mxCell id="4" value="&lt;font style=&quot;font-size: 24px&quot;&gt;识别程序流程&lt;/font&gt;" style="text;html=1;strokeColor=none;fillColor=none;align=center;verticalAlign=middle;whiteSpace=wrap;rounded=0;" parent="1" vertex="1">
                    <mxGeometry x="234" y="30" width="360" height="20" as="geometry"/>
                </mxCell>
                <mxCell id="11" style="edgeStyle=orthogonalEdgeStyle;rounded=0;orthogonalLoop=1;jettySize=auto;html=1;" parent="1" source="7" target="10" edge="1">
                    <mxGeometry relative="1" as="geometry"/>
                </mxCell>
                <mxCell id="7" value="&lt;font&gt;&lt;font style=&quot;font-size: 12px&quot;&gt;开始&lt;br&gt;（初始化完成）&lt;/font&gt;&lt;br&gt;&lt;/font&gt;" style="ellipse;whiteSpace=wrap;html=1;" parent="1" vertex="1">
                    <mxGeometry x="334" y="80" width="146" height="80" as="geometry"/>
                </mxCell>
                <mxCell id="17" style="edgeStyle=orthogonalEdgeStyle;rounded=0;orthogonalLoop=1;jettySize=auto;html=1;" parent="1" source="10" target="16" edge="1">
                    <mxGeometry relative="1" as="geometry"/>
                </mxCell>
                <mxCell id="10" value="&lt;font style=&quot;font-size: 12px&quot;&gt;拍摄照片&lt;/font&gt;" style="rounded=0;whiteSpace=wrap;html=1;" parent="1" vertex="1">
                    <mxGeometry x="347" y="190" width="120" height="60" as="geometry"/>
                </mxCell>
                <mxCell id="20" style="edgeStyle=orthogonalEdgeStyle;rounded=0;orthogonalLoop=1;jettySize=auto;html=1;" parent="1" source="16" edge="1">
                    <mxGeometry relative="1" as="geometry">
                        <mxPoint x="407" y="360" as="targetPoint"/>
                    </mxGeometry>
                </mxCell>
                <mxCell id="16" value="&lt;font style=&quot;font-size: 12px&quot;&gt;KPU识别&lt;/font&gt;" style="rounded=0;whiteSpace=wrap;html=1;fontSize=18;" parent="1" vertex="1">
                    <mxGeometry x="347" y="280" width="120" height="60" as="geometry"/>
                </mxCell>
                <mxCell id="37" value="" style="edgeStyle=orthogonalEdgeStyle;rounded=0;orthogonalLoop=1;jettySize=auto;html=1;" parent="1" source="33" edge="1">
                    <mxGeometry relative="1" as="geometry">
                        <mxPoint x="562" y="405" as="targetPoint"/>
                    </mxGeometry>
                </mxCell>
                <mxCell id="52" value="" style="edgeStyle=orthogonalEdgeStyle;rounded=0;orthogonalLoop=1;jettySize=auto;html=1;" parent="1" source="33" target="34" edge="1">
                    <mxGeometry relative="1" as="geometry"/>
                </mxCell>
                <mxCell id="33" value="是否检测到缺陷" style="html=1;whiteSpace=wrap;aspect=fixed;shape=isoRectangle;" parent="1" vertex="1">
                    <mxGeometry x="332" y="360" width="150" height="90" as="geometry"/>
                </mxCell>
                <mxCell id="47" value="" style="edgeStyle=orthogonalEdgeStyle;rounded=0;orthogonalLoop=1;jettySize=auto;html=1;entryX=0;entryY=0.5;entryDx=0;entryDy=0;" parent="1" source="34" target="48" edge="1">
                    <mxGeometry relative="1" as="geometry">
                        <mxPoint x="562" y="575" as="targetPoint"/>
                    </mxGeometry>
                </mxCell>
                <mxCell id="59" value="" style="edgeStyle=orthogonalEdgeStyle;rounded=0;orthogonalLoop=1;jettySize=auto;html=1;" parent="1" source="34" target="55" edge="1">
                    <mxGeometry relative="1" as="geometry"/>
                </mxCell>
                <mxCell id="34" value="定位数据是否有效" style="html=1;whiteSpace=wrap;aspect=fixed;shape=isoRectangle;" parent="1" vertex="1">
                    <mxGeometry x="332" y="500" width="150" height="90" as="geometry"/>
                </mxCell>
                <mxCell id="65" style="edgeStyle=orthogonalEdgeStyle;rounded=0;orthogonalLoop=1;jettySize=auto;html=1;" parent="1" source="39" edge="1">
                    <mxGeometry relative="1" as="geometry">
                        <mxPoint x="700" y="220" as="targetPoint"/>
                    </mxGeometry>
                </mxCell>
                <mxCell id="39" value="LCD 显示图片&lt;br&gt;（没有标注）" style="rounded=0;whiteSpace=wrap;html=1;" parent="1" vertex="1">
                    <mxGeometry x="560" y="375" width="120" height="60" as="geometry"/>
                </mxCell>
                <mxCell id="44" value="否" style="text;html=1;align=center;verticalAlign=middle;resizable=0;points=[];autosize=1;" parent="1" vertex="1">
                    <mxGeometry x="500" y="380" width="30" height="20" as="geometry"/>
                </mxCell>
                <mxCell id="45" value="是" style="text;html=1;align=center;verticalAlign=middle;resizable=0;points=[];autosize=1;" parent="1" vertex="1">
                    <mxGeometry x="410" y="470" width="30" height="20" as="geometry"/>
                </mxCell>
                <mxCell id="49" style="edgeStyle=orthogonalEdgeStyle;rounded=0;orthogonalLoop=1;jettySize=auto;html=1;" parent="1" source="48" edge="1">
                    <mxGeometry relative="1" as="geometry">
                        <mxPoint x="470" y="220" as="targetPoint"/>
                        <Array as="points">
                            <mxPoint x="720" y="545"/>
                            <mxPoint x="720" y="220"/>
                        </Array>
                    </mxGeometry>
                </mxCell>
                <mxCell id="48" value="LCD&amp;nbsp; 显示图片&lt;br&gt;（带检测框与定位无效的标注）" style="rounded=0;whiteSpace=wrap;html=1;" parent="1" vertex="1">
                    <mxGeometry x="560" y="515" width="120" height="60" as="geometry"/>
                </mxCell>
                <mxCell id="60" value="" style="edgeStyle=orthogonalEdgeStyle;rounded=0;orthogonalLoop=1;jettySize=auto;html=1;" parent="1" source="55" target="56" edge="1">
                    <mxGeometry relative="1" as="geometry"/>
                </mxCell>
                <mxCell id="55" value="发送图片信息 &lt;br&gt;（json 字符串）" style="rounded=0;whiteSpace=wrap;html=1;" parent="1" vertex="1">
                    <mxGeometry x="347" y="630" width="120" height="60" as="geometry"/>
                </mxCell>
                <mxCell id="58" style="edgeStyle=orthogonalEdgeStyle;rounded=0;orthogonalLoop=1;jettySize=auto;html=1;entryX=0;entryY=0.5;entryDx=0;entryDy=0;" parent="1" source="56" target="10" edge="1">
                    <mxGeometry relative="1" as="geometry">
                        <Array as="points">
                            <mxPoint x="407" y="810"/>
                            <mxPoint x="280" y="810"/>
                            <mxPoint x="280" y="220"/>
                        </Array>
                    </mxGeometry>
                </mxCell>
                <mxCell id="56" value="发送图片&amp;nbsp;&lt;br&gt;（二进制数据）" style="rounded=0;whiteSpace=wrap;html=1;" parent="1" vertex="1">
                    <mxGeometry x="347" y="730" width="120" height="60" as="geometry"/>
                </mxCell>
                <mxCell id="61" value="是" style="text;html=1;align=center;verticalAlign=middle;resizable=0;points=[];autosize=1;" parent="1" vertex="1">
                    <mxGeometry x="410" y="600" width="30" height="20" as="geometry"/>
                </mxCell>
                <mxCell id="62" value="否" style="text;html=1;align=center;verticalAlign=middle;resizable=0;points=[];autosize=1;" parent="1" vertex="1">
                    <mxGeometry x="500" y="520" width="30" height="20" as="geometry"/>
                </mxCell>
                <mxCell id="63" value="定时器中断&lt;br&gt;刷新定位数据" style="rounded=0;whiteSpace=wrap;html=1;" parent="1" vertex="1">
                    <mxGeometry x="114" y="450" width="120" height="60" as="geometry"/>
                </mxCell>
                <mxCell id="64" style="edgeStyle=orthogonalEdgeStyle;rounded=0;orthogonalLoop=1;jettySize=auto;html=1;entryX=0.5;entryY=1;entryDx=0;entryDy=0;" parent="1" source="63" target="63" edge="1">
                    <mxGeometry relative="1" as="geometry">
                        <Array as="points">
                            <mxPoint x="174" y="430"/>
                            <mxPoint x="47" y="430"/>
                            <mxPoint x="47" y="530"/>
                            <mxPoint x="174" y="530"/>
                        </Array>
                    </mxGeometry>
                </mxCell>
            </root>
        </mxGraphModel>
    </diagram>
</mxfile>